C:\Users\r0593348\3dpredictsim\Results\Batchsim_tmt_linear_v2\Pog_s1_tmt_bCst_d00_k500_ig24_act_GRF.mot
nRows=12
nColumns=19

name C:\Users\r0593348\3dpredictsim\Results\Batchsim_tmt_linear_v2\Pog_s1_tmt_bCst_d00_k500_ig24_act_GRF.mot
datacolumns 19
datarows 12
range 0.6544372186 0.7984134067
endheader
time 	ground_force_vx	ground_force_vy	ground_force_vz	ground_force_px	ground_force_py	ground_force_pz	1_ground_force_vx	1_ground_force_vy	1_ground_force_vz	1_ground_force_px	1_ground_force_py	1_ground_force_pz	ground_torque_x	ground_torque_y	ground_torque_z	1_ground_torque_x	1_ground_torque_y	1_ground_torque_z
        0.6544372186	       61.6201611122	      306.1760612555	       10.2677993553	        0.4327351296	        0.0000000000	        0.0518609714	      -84.0882441967	       66.2968645027	       -8.2457551818	        1.2145690063	        0.0000000000	       -0.0337661794	        0.0000000000	        0.0000000000	        0.0000000000	        0.0000000000	        0.0000000000	        0.0000000000	
        0.6675259630	       30.8593206784	      242.3767222796	       11.8017794395	        0.4543332361	        0.0000000000	        0.0524376066	     -169.9850445892	      156.6377062815	      -15.6391610699	        1.1948091147	        0.0000000000	       -0.0423031991	        0.0000000000	        0.0000000000	        0.0000000000	        0.0000000000	        0.0000000000	        0.0000000000	
        0.6806147074	       36.5520559340	      210.6351945609	       14.7008200130	        0.4549030930	        0.0000000000	        0.0526128354	     -200.7095140044	      460.8766101541	        0.6253069444	        1.1655045418	        0.0000000000	       -0.0531406650	        0.0000000000	        0.0000000000	        0.0000000000	        0.0000000000	        0.0000000000	        0.0000000000	
        0.6937034518	       33.5581992503	      171.6988609873	       16.9238519366	        0.4552844319	        0.0000000000	        0.0527924529	     -213.2386289147	      672.3892053762	        7.5973411762	        1.1497672309	        0.0000000000	       -0.0571071187	        0.0000000000	        0.0000000000	        0.0000000000	        0.0000000000	        0.0000000000	        0.0000000000	
        0.7067921961	       26.5517303423	      121.4703835576	       17.2442619136	        0.4557219858	        0.0000000000	        0.0530315910	     -214.2669411942	      827.6418605768	       10.6607757269	        1.1403822452	        0.0000000000	       -0.0595682395	        0.0000000000	        0.0000000000	        0.0000000000	        0.0000000000	        0.0000000000	        0.0000000000	
        0.7198809405	        9.0265642457	       61.6193903663	       13.0632949355	        0.4554024752	        0.0000000000	        0.0533044564	     -210.5672458554	      858.1001794935	       11.8681575798	        1.1361370071	        0.0000000000	       -0.0606753711	        0.0000000000	        0.0000000000	        0.0000000000	        0.0000000000	        0.0000000000	        0.0000000000	
        0.7329696849	      -11.2259593273	       12.8822759142	        2.8924523723	        0.4490753330	        0.0000000000	        0.0527266337	     -196.1725405363	      844.4759637092	       13.0545006040	        1.1334811868	        0.0000000000	       -0.0612315514	        0.0000000000	        0.0000000000	        0.0000000000	        0.0000000000	        0.0000000000	        0.0000000000	
        0.7460584293	      -11.1674899136	        8.7395071559	       -0.8817933978	        0.0000000000	        0.0000000000	        0.0000000000	     -180.1292639358	      815.8974374151	       12.1240087526	        1.1325138561	        0.0000000000	       -0.0616751508	        0.0000000000	        0.0000000000	        0.0000000000	        0.0000000000	        0.0000000000	        0.0000000000	
        0.7591471736	      -14.4941826376	        9.6065063790	       -1.0327584757	        0.0000000000	        0.0000000000	        0.0000000000	     -160.0442988368	      779.0265447867	       12.8232324738	        1.1327304701	        0.0000000000	       -0.0620961319	        0.0000000000	        0.0000000000	        0.0000000000	        0.0000000000	        0.0000000000	        0.0000000000	
        0.7722359180	      -14.2174890650	        8.2617936428	       -1.0526430990	        0.0000000000	        0.0000000000	        0.0000000000	     -141.0569916645	      740.7222821231	       13.8827622655	        1.1336437949	        0.0000000000	       -0.0624901766	        0.0000000000	        0.0000000000	        0.0000000000	        0.0000000000	        0.0000000000	        0.0000000000	
        0.7853246624	      -10.6479624149	        5.5740183901	       -0.7689852823	        0.0000000000	        0.0000000000	        0.0000000000	     -123.4507136831	      705.3061833651	       14.4039815893	        1.1349779100	        0.0000000000	       -0.0628744432	        0.0000000000	        0.0000000000	        0.0000000000	        0.0000000000	        0.0000000000	        0.0000000000	
        0.7984134067	       -7.1965393215	        3.4809920901	       -0.5061048168	        0.0000000000	        0.0000000000	        0.0000000000	     -107.1634927791	      676.0648053134	       14.6888505123	        1.1368303058	        0.0000000000	       -0.0631873453	        0.0000000000	        0.0000000000	        0.0000000000	        0.0000000000	        0.0000000000	        0.0000000000	
